<?xml version="1.0" encoding="UTF-8"?>
<svg id="Layer_1" data-name="Layer 1" xmlns="http://www.w3.org/2000/svg" viewBox="0 0 250 55">
  <defs>
    <style>
      .cls-1 {
        fill: #2b56f2;
      }

      .cls-2 {
        fill: #ff7878;
      }

      .cls-3 {
        fill: #24b6ff;
      }

      .cls-4 {
        fill: #00d1a7;
      }
    </style>
  </defs>
  <g>
    <path class="cls-4" d="M224.50239,5.63211h5.42579c1.36805.03932,2.6379,1.82229,2.18953,3.48065-.09334.34515-.27437.64824-.4883.93128l3.92825,3.90009c.82148-1.08728,1.54637-2.15934,1.88171-3.50109.31159-1.24651.32832-2.57062.04829-3.82921-.26843-1.20696-.81123-2.36431-1.56984-3.34688-.22985-.29784-.47697-.57743-.73946-.838-1.54044-1.52958-3.61018-2.40188-5.82614-2.42649l-10.35492-.00246v11.09658h5.52534l-.02023-5.46447Z"/>
    <path class="cls-3" d="M235.97231,33.8932h-5.42606c-1.36805-.03932-2.63763-1.82229-2.18953-3.48065.09334-.34511.27463-.64824.48857-.93128l-3.92825-3.90009c-.82148,1.08728-1.54637,2.15934-1.88171,3.50109-.31159,1.24651-.32832,2.57062-.04829,3.82921.26843,1.20696.81123,2.36431,1.56957,3.34691.23012.2978.47697.57739.73946.83797,1.54071,1.52958,3.61045,2.40188,5.82614,2.42649l10.35519.00246v-11.09658h-5.52534l.02023,5.46447Z"/>
    <path class="cls-1" d="M216.10687,20.07175c.03912-1.36808,1.82209-2.63783,3.48042-2.18956.34532.09328.64828.27457.93128.48837l3.90019-3.92828c-1.08721-.82138-2.15931-1.54624-3.50092-1.88167-1.24665-.31159-2.57072-.32829-3.82924-.04829-1.20699.2685-2.36434.81133-3.34688,1.56978-.29784.22989-.5776.47694-.8382.7394-1.52938,1.54067-2.40184,3.61035-2.42639,5.82614l-.00243,10.35502h11.09654v-5.52517l-5.46437.02013v-5.42586Z"/>
    <path class="cls-2" d="M238.90346,8.52265v5.52521l5.46437-.02017v5.42586c-.03939,1.36808-1.82236,2.63783-3.48069,2.18956-.34505-.09328-.64828-.27457-.93128-.48837l-3.90019,3.92828c1.08748.82141,2.15958,1.54627,3.50119,1.88167,1.24665.31159,2.57072.32829,3.82924.04829,1.20699-.2685,2.36434-.81133,3.34688-1.56978.29784-.22989.57733-.47694.83793-.7394,1.52965-1.54067,2.40211-3.61035,2.42666-5.82614l.00243-10.35502h-11.09654Z"/>
  </g>
  <g>
    <path class="cls-1" d="M200.85978,23.87082c-2.73987-2.34222-6.55671-3.51414-11.45103-3.51414-2.67729,0-5.28119.34532-7.81172,1.03541-2.01228.54866-3.78904,1.31932-5.33811,2.30455l2.0719,6.80463c1.24989-1.0345,2.75525-1.8345,4.52122-2.39547,1.7773-.56438,3.60802-.84711,5.49-.84711,2.76092,0,4.82095.62751,6.18063,1.88252,1.35915,1.25501,2.03953,2.99131,2.03953,5.20781v.37661h-8.40793c-3.38842,0-6.12884.4392-8.21962,1.3176-2.0924.8784-3.59831,2.06111-4.51772,3.54543-.92103,1.48486-1.38073,3.18987-1.38073,5.11339,0,1.9246.50233,3.65011,1.50591,5.17652,1.00412,1.52749,2.45715,2.71991,4.36071,3.57673,1.90302.8579,4.13085,1.28631,6.68242,1.28631,2.92764,0,5.36482-.53362,7.30993-1.60033,1.30654-.7165,2.33763-1.65047,3.10623-2.79154v4.01525h7.96873v-19.57677c0-4.93533-1.37102-8.57465-4.11035-10.91741ZM193.42467,47.65129c-1.4649.83739-3.13699,1.25501-5.01951,1.25501-1.9246,0-3.41972-.40791-4.48642-1.22372s-1.59979-1.91381-1.59979-3.294c0-1.25501.4392-2.29042,1.3176-3.10623.8784-.81527,2.61362-1.22318,5.20781-1.22318h7.71783v3.76449c-.62751,1.71579-1.67371,2.99131-3.13753,3.82762Z"/>
    <path class="cls-1" d="M102.97403,21.92572c-2.11237-1.04512-4.50747-1.56903-7.18421-1.56903-2.92818,0-5.51158.5865-7.74913,1.75734-1.4479.75784-2.66919,1.72938-3.67061,2.90731v-4.22545h-7.96873v33.56912h8.34534v-16.87845c0-2.21704.37661-4.04722,1.12929-5.49054.75322-1.44278,1.80914-2.5192,3.16882-3.23141,1.35861-.7106,2.93843-1.06671,4.73732-1.06671,2.38431,0,4.24524.71222,5.58442,2.13341,1.3381,1.42281,2.00769,3.57673,2.00769,6.46282v18.07087h8.34534v-19.20016c0-3.42943-.59621-6.23243-1.78863-8.40793-1.19188-2.17442-2.84509-3.78554-4.95692-4.8312Z"/>
    <path class="cls-1" d="M141.43695,23.87082c-2.73987-2.34222-6.55671-3.51414-11.45103-3.51414-2.67729,0-5.28119.34532-7.81172,1.03541-2.03332.55446-3.82627,1.33581-5.38694,2.33605l2.03602,6.68654.05692.10727c1.25501-1.04512,2.77063-1.85122,4.54901-2.41614,1.7773-.56438,3.60802-.84711,5.49-.84711,2.76092,0,4.82095.62751,6.18063,1.88252,1.35915,1.25501,2.03953,2.99131,2.03953,5.20781v.37661h-8.40793c-3.38842,0-6.12884.4392-8.21962,1.3176-2.0924.8784-3.59831,2.06111-4.51772,3.54543-.92103,1.48486-1.38073,3.18987-1.38073,5.11339,0,1.9246.50233,3.65011,1.50591,5.17652,1.00412,1.52749,2.45715,2.71991,4.36071,3.57673,1.90302.8579,4.13085,1.28631,6.68242,1.28631,2.92764,0,5.36482-.53362,7.30993-1.60033,1.30654-.7165,2.33763-1.65047,3.10623-2.79154v4.01525h7.96873v-19.57677c0-4.93533-1.37102-8.57465-4.11035-10.91741ZM134.00184,47.65129c-1.4649.83739-3.13699,1.25501-5.01951,1.25501-1.9246,0-3.41972-.40791-4.48642-1.22372s-1.59979-1.91381-1.59979-3.294c0-1.25501.4392-2.29042,1.3176-3.10623.8784-.81527,2.61362-1.22318,5.20781-1.22318h7.71783v3.76449c-.62751,1.71579-1.67371,2.99131-3.13753,3.82762Z"/>
    <path class="cls-1" d="M60.78926,37.67487c0,2.1755-.37661,3.98409-1.12983,5.42741-.75268,1.44278-1.78809,2.54132-3.10569,3.294-1.3176.75322-2.8343,1.12929-4.54901,1.12929-2.42639,0-4.29812-.72139-5.61572-2.16471-1.3176-1.44278-1.9764-3.64903-1.9764-6.61929v-17.94569h-8.34534v19.07499c0,3.38842.59621,6.20168,1.78809,8.43922,1.19242,2.23809,2.87584,3.86971,5.05134,4.89433,2.17442,1.02516,4.70602,1.5372,7.59212,1.5372,2.59311,0,4.96663-.57463,7.12162-1.72551,1.38612-.74017,2.56587-1.69543,3.54489-2.85986v4.20875h7.96873V20.79588h-8.3448v16.87899Z"/>
    <path class="cls-1" d="M20.20428,13.94839h-7.60237v7.18556h7.60237v18.68182c0,5.22939-2.23863,7.84301-6.71426,7.84301-1.67317,0-3.22116-.41762-4.64289-1.25501-1.42281-.83631-2.74041-2.07028-3.9528-3.70191l-4.89433,5.89845c1.589,2.09187,3.57673,3.6814,5.96103,4.76861s4.97742,1.63108,7.78042,1.63108c4.97742,0,8.73112-1.29602,11.26273-3.89021,2.53053-2.59311,3.79579-6.52541,3.79579-11.16696V13.94839h-8.59569Z"/>
    <path class="cls-1" d="M171.57555,28.13711c.29244.04263.62751.08471,1.00412.12572v-7.90614c-3.17961,0-5.8569.59621-8.03132,1.78863-1.55689.85301-2.80813,1.99559-3.76503,3.41655v-4.76598h-7.96873v33.56912h8.34534v-16.12576c0-3.38788.86761-5.9292,2.60391-7.62341,1.6988-1.65867,3.95442-2.49987,6.75634-2.53467.06016-.00074.11654-.00664.17697-.00664.29244,0,.58542.02158.8784.06259Z"/>
  </g>
</svg>